<svg width="620" height="350" viewBox="0 0 620 350" fill="none" xmlns="http://www.w3.org/2000/svg">
<path d="M22.2374 35.0489C18.7789 52.3452 13 66.529 13 83.7432V113.286C13 129.638 13.7597 143.406 18.2052 159.16C19.7589 164.666 18.5084 170.827 20.4779 176.084C23.1106 183.112 27.5809 191.336 32.7944 196.72C42.8475 207.102 58.0149 206.61 70.697 201.322C79.7224 197.559 86.4333 195.53 92.6175 187.516C97.212 181.561 98.6223 170.683 99.8021 163.317C101.702 151.457 102.833 139.393 103.445 127.289M103.445 127.289C103.881 118.662 104.054 110.016 104.054 101.41C104.054 95.6911 103.161 90.3956 102.735 84.7824C102.48 81.4293 101.892 97.4394 102.075 99.7025C102.817 108.868 103.149 118.076 103.445 127.289ZM103.445 127.289C103.942 142.758 104.337 158.241 106.4 173.56C107.493 181.675 107.27 195.513 116.664 199.318C125.549 202.917 132.921 199.052 140.124 193.305C144.698 189.657 151.044 187.681 154.493 182.765C157.996 177.773 159.792 169.447 160.725 163.465C164.414 139.81 168.533 113.295 164.024 89.162C161.705 76.7508 160.348 64.2998 158.452 51.8247C158.09 49.4376 158.865 34.0233 156.839 35.0489M194.674 34C192.357 56.7473 186.233 82.8978 190.439 105.984C193.541 123.011 195.609 140.939 200.461 157.542C204.319 170.742 207.439 184.238 210.907 197.549C211.386 199.389 213.606 213.256 215 207.691M284.849 23C290.463 48.9446 290.432 73.8021 291.219 100.655C291.784 119.917 293.144 140.47 289.993 159.403C288.473 168.53 287.785 178.069 286.737 187.337C285.984 193.993 284.448 190.476 284 185.505M189.22 112.803C222.622 112.803 322.701 107.735 289.298 107.735M312 197C325.67 180.09 327.697 155.022 331.114 132.611C334.685 109.189 334.145 83.8946 340.734 61.3391C344.671 47.8622 350.452 32.898 358.076 21.8797C360.348 18.5964 362.584 14.2656 365.291 11.4795C368.282 8.40086 371.241 21.0756 371.936 23.1032C377.944 40.6103 376.936 57.2654 376.936 75.9452C376.936 90.4737 377.025 104.767 375.797 119.228C374.819 130.747 372.062 142.032 371.303 153.488C370.909 159.452 372.776 168.752 370.101 173.6M337.438 103.935H372.908M422.314 27.9258C425.266 61.6928 432.221 98.9202 423.44 132.579C417.521 155.269 410.216 177.595 404.016 200.143C403.085 203.529 401.426 206.364 400.356 209.574C399.727 211.459 404.28 210.348 406.268 210.348C421.849 210.348 437.424 209.712 452.999 209.362C463.651 209.124 474.298 209.081 484.951 209.081C488.213 209.081 483.004 207.204 481.855 206.547M504.12 34C503.437 57.4149 502.227 81.3671 503.694 104.781C505.101 127.256 506.04 149.207 506.04 171.784C506.04 182.795 507 215.793 507 204.782M506 33C519.189 28.4656 533.577 18.7404 547.294 17.6667C550.265 17.4341 558.67 13.8517 560 10M504 111C515.061 107.462 526.189 104.065 537.118 99.75C541.599 97.9807 545.831 94.8013 550.353 93.3333C553.212 92.4052 555.487 92.373 558 90M506 207C515.076 206.718 522.731 201.384 531.413 198.289C544.118 193.76 557.059 192.973 570 191M104.343 220.482C92.8953 244.759 75.133 268.115 68.3792 294.38C67.1594 299.124 61.8853 318.028 56.2036 318.028M105.609 215.415C108.069 227.267 114.479 240.107 119.685 251.097C124.621 261.516 128.323 272.244 133.479 282.556C137.923 291.444 141.222 300.737 145.514 309.652C146.655 312.022 153.574 324.362 152.482 324.362M75.2061 267.354C93.5985 269.936 111.097 271.155 129.679 271.155M184.152 233.15C186.831 249.893 186.908 266.625 186.686 283.542C186.57 292.381 178.778 297.468 177.888 305.922C177.453 310.057 176.047 314.118 174.651 318.027C172.881 322.984 174.585 321.828 179.789 321.828C191.151 321.828 202.47 323.095 213.782 323.095C219.122 323.095 224.306 324.361 229.758 324.361M243 239C244.671 261.573 245.75 284.071 245.75 306.644C245.75 309.136 250.805 326.557 254 322.347M248.76 239.484C261.419 234.662 276.427 234.657 289.862 234.417C296.848 234.292 303.846 234.417 310.834 234.417M255.094 281.289C266.966 280.85 280.783 277.546 292.114 273.689C298.385 271.554 305.556 272.422 312.101 272.422M252 321.573C265.151 318.934 274.099 318.265 286.281 317.695C301.809 316.967 316.5 313.945 332.126 310.722M365.308 231.884C373.484 260.716 372.909 288.547 372.909 318.028M361.507 228.083C375.976 231.728 390.953 236.016 404.86 241.314C415.639 245.42 422.314 250.345 422.314 262.569C422.314 272.564 406.603 274.74 398.948 275.941C393.664 276.77 376.16 273.519 374.175 277.489M404.579 274.955C416.652 282.821 427.319 294.605 434.349 307.259C436.734 311.551 438.195 321.827 443.85 321.827M494 246.026C497.228 264.384 499.138 282.812 501.882 301.203C502.637 306.26 504.135 310.513 504.135 315.701M443 245.495C456.822 245.495 492.5 238.526 492.5 238.526C492.5 238.526 515 226.526 543 235.07M575.933 224C575.933 240.51 576.787 256.58 572.388 272.778C569.776 282.398 567 293.174 567 303M565.696 330C564.696 330.025 563.865 330.039 563.161 330.083M563.161 330.083C560.592 330.244 559.706 330.809 558.377 333.8C557.907 334.858 557.561 337.713 559.362 337.601C561.71 337.454 563.12 331.96 563.161 330.083ZM563.161 330.083C563.162 330.054 563.162 330.027 563.162 330M604.997 220C605.214 230.904 609.393 243.784 604.997 254.5C602.67 260.175 605.455 266.581 602.332 272C598.541 278.576 601.921 286.931 598.999 293.944C597.219 298.218 597 301.43 597 306M597 328.979C597.498 328.36 601.899 321.557 601.899 324.937C601.899 326.119 602.367 328.165 601.287 328.979C597.82 331.595 598.648 328.58 600.674 326.67" stroke="white" stroke-width="15" stroke-linecap="round"/>
</svg>
